<?xml version="1.0" encoding="UTF-8"?>
<svg id="Calque_1" data-name="Calque 1" xmlns="http://www.w3.org/2000/svg" viewBox="0 0 171.84 27.86">
  <path d="M18.28,4.86c1.19,1.86-1.49,1.23-2.5,1.51-3.45.96-8.18,3.8-10.43,6.6,5.33.19,10.31-2.26,15.32-3.31,1.17,5.65,8.96,1.94,6.75-2.92-1.13-.8-4.64,4.57-4.8,2.63-.39-4.85,9.22-6.5,6.72,1.2,1.71.82,8.78-2.27,9.6-1.44.21.21-.35,1.7.23,1.92,1.07-.72,5.51-3.23,6.46-2.35.19.17-.1,1.27.03,1.4.82.86,10.82-5.45,6.72,1.91,5.65-.89,9.02.95,14.58-1.49,1-.44,5.42-3.97,4.54-.74-.24.9-2.02,1.7-2.33,2.72,2.38.32,12.5-4.07,13.66-3.83,2.03.41-.74,2.67-1.67,3.12-.58,2.34,5.95-.02,6.84-.36.51-.19,6.15-2.91,3.46-3.25-1.77-.22-2.93,2.68-3.17,2.82-1.45.85-2.43-.84-.9-2.58,3.76-4.29,10.3-.55,4,3.52-2.1,1.36-8.02,3.08-10.38,2.38-1.28-.38-1.63-2.24-2.11-2.33-1.98-.39-6.57,2.34-8.65,2.33-1.03,0-1.56-1.33-1.82-1.33-.62.01-6.12,8.42-7.42,9.84-1.2,1.31-5.25,5.24-6.96,5.03-2.77-.35,2.52-3.22,2.79-3.45,2.49-2.06,5.84-6.35,7.7-9.09.3-.44,1.65-1.96,1.26-2.34-2.28.76-3.99,1.16-6.45.93-.84-.08-1.45-.79-2.32-.8-1.83-.02-4.43,1.42-6.58.82-.7-.71,1.2-3.72-.23-3.35-.81.21-2.64.96-3.46,1.34-2.36,1.11-4.64,4.42-4.23-.87-2.04.59-5,4.01-6.71,4.33-2.05.38.61-3.22-.01-3.85-2.38.74-5.41.55-7.65.98-1.31.26-2.62,1.82-4.39,1.88-2.19.07-3.59-2.28-4.72-2.35-1.19-.08-4.01,1.32-5.54,1.65-2.91.62-10.58,3.07-10.09-1.69-.95-.24-1.86,1.12-2.63.96-.55-.11-1.01-1.45-.71-1.9.24-.36,6.52-2.16,7.66-2.66,1.64-.73,9.12-5.75,10.53-3.56Z"/>
  <path d="M132.5,13.45c7.95.46.87,3.36-1.47,1.72-1.01-.71.24-3.07-1.15-2.66-3.46,1.03-12.38,7.89-11.77-.01-1.19.16-1.87,1.03-3.09,1.46-1.45.51-5.88,1.64-7.18,1.42-.74-.13-1.33-.95-1.96-.96-.57,0-2.45,1.63-3.12.95-1.14-1.14,3.71-3.71,4.55-4.33,1.22-.9,2.35-3.46,3.61-1.66.35,1.35-2.15,2.6-2.4,4.07,4.52-.28,8.55-2.2,12-5.03,1.37-1.13,7.82-8.27,8.4-8.4s.84.38,1.19.73c.12.44-.06.8-.24,1.19-.69,1.52-6.61,6.18-8.16,8.15-.92,1.16-1.57,2.24-2.14,3.61.61.87,1.09.79,2.04.62,2.34-.42,7.83-4.26,10.19-4.26,2.55,0,1.38,1.92.71,3.39Z"/>
  <path d="M150.26,12.02c.7.76,6.93-2.24,8.33-1.95,1.23.25-.44,2.58,1,2.41,2.27-.26,4.2-1.8,6.5-1.9.32,1.56-.84,2.56-1.44,3.83.89.69,7.29-2.75,7.19-.71-.05.94-10.43,5.29-9.11-.24-2.01.69-5.31,2.25-5.31-.92-4.4.72-8.92,1.35-12.78,3.69-3.03.64-6.99-.12-7.33-3.73,2.2-.59,1.77.8,2.6,1.45,2.49,1.92,8.11,0,8.43-3.37-2.2-.41-4.32,2.19-5.99,2.41-1.01.13-.91-.55-.66-1.15.94-2.28,9.97-5.3,8.58.18Z"/>
  <path d="M96.04,15.37c-1.05-1.33,5.48-2.49,3.83-4.8-.21-.29-5.47,2.9-6.49,2.88-.78-.01-1.55-.96-1.18-1.44.24-.31,6.18-2.54,7.22-3.1,1.09-.59,2.48-2.47,3.56-2.19,1.84,1.35-.5,1.89-.94,2.89-.53,1.21,0,2.46-.98,3.82-.65.9-4.25,2.91-5.03,1.92Z"/>
  <path d="M132.5,4.34c1.49,1.51-5.52,4.33-6.71,3.83-1.48-1.48,6.42-4.13,6.71-3.83Z"/>
  <path d="M139.65,10.05c-2.27,1.4-1.44-3.32-.19-3.31,1.07,0,.63,3.04.19,3.31Z"/>
</svg>