<?xml version="1.0" encoding="UTF-8"?>
<svg id="Calque_1" data-name="Calque 1" xmlns="http://www.w3.org/2000/svg" viewBox="0 0 198.63 19.63">
  <path d="M53.71,7.05c2.67-.78,4.51-2.84,7.31-3.49,2.3-.53,2.45.75.37,1.81-1.32.67-6.58,3.75-7.19,3.91-1.06.28-1.37-.82-1.93-.58-1.44.61-2.76,4.81-4.31,5.8l.23.71c1.07-.7,3.24-2.57,4.46-1.78.21.13-.13,1.24,1.05.82.46-1.63,2.58-4.87,4.51-4.28,3.16.97-3.98,5.34-3.06,6.2l23.26-8.16c1.3.75.25,1.71.4,2.56.07.45.76.89.8,1.51.07,1.44-2.16,2.92-1.9,4.56,2.58.31,4.95-.72,7.32-1.55,2.07-.72,11.86-5.73,12.58-5.67,3.41.29-1.59,4.83-2.4,5.78-.32.38-1.25.97-.48,1.44,2.12-.7,5.09-3.55,6.94-4.1,2.2-.66,5.12-.5,7.71-1.4,1.75-.61,3.15-1.89,4.88-2.32,6.81-1.71,7.77,2.08,2.25,5.13-1.86,1.03-4.27,1.33-5.97,2.19-.69.35-1.36.45-1.17,1.47,3.98,1.66,11.75-4.84,14.18-4.8s-.26,2.78,1.41,2.88c2.92-2.51,8.36-6.55,5.76.48.25.79,4.37-1.65,3.6.23-.39.96-3.42,2.47-4.49,2.13-1.58-.51-.02-3.89-1.5-3.32-1.32.51-5.29,5.33-6.26,2.86-.33-.83.97-2.81-.45-2.38-2.88.88-10.53,5.83-13.24,3.13-.96-.95-.27-2.72-2.35-3.38-.26-.6,4.21-1.87,2.15-2.17-5.09,0-7.53,2.62-11.42,4.42-7.06,3.25-5.91-1.01-1.77-4.65.07-.36-.46-.31-.71-.23-2.45.76-5.81,2.89-8.64,3.84-2.22.75-8.77,3.47-9.77.13-.83-2.77,3.95-4.52.26-5.8-3.93,1.43-7.86,3.22-11.84,4.47-1.05.33-2.14.07-3.02.34-1.72.53-3.61,2.13-5.53,2.21-.98.04-4-2.14-5.15-2.15-.69,0-2.14,2.29-4.24,1.78-2.83-1.83,3.74-7.93,3.04-8.67-2.03.84-13.07,7.81-14.14,7.68-.85-.11-.59-1.35-.12-1.8,6.49-3.77,13.43-6.87,19.29-11.64.59-.48,4.13-5.15,3.53-1.29-.27,1.75-3.42,3.49-4.24,5.13ZM118.01,10.42c-2.78-.3-6.76.62-7.19,3.83,2.39-1.08,5.64-1.5,7.19-3.83Z"/>
  <path d="M157.36,3.21c.85-.34,3.31-.51,3.35.72.03.78-4.67,1.14-5.62,1.57-1.18.53-6.41,6.93-6.79,8.1-.23.69,1.38,1.42,1.63,1.43,1.63.08,7.29-5.39,7.47-.82,1.29-.41,4.32-.26,5.35-.56,2.73-.8,6.35-3.08,9.23-3.26,4.08-.25,4.39,1.9,5.25,1.93,1.44.05,6-2.79,6.05-.25.02,1.25-1.51,1.88-1.44,3.14.36.35,6.94-2.81,8.39-2.89,1.72-.1.05,2.92.25,3.86.35.44,6.39-3.24,7.04-3.29s1.24.51,1.11,1.12c-.26,1.24-13.39,7.93-10.08.73-.34-.41-9.65,5.11-9.13.74.1-.85,1.48-1.48.73-2.19-1.39.76-3.27.7-4.57,1.19-1.11.42-1.71,1.47-2.87,1.93-2.12.84-9.4,3.55-11.17,3.03-2.48-.73-.17-3.62-.35-3.75-1.54-.12-3.44.89-4.94.49-.54-.14-.53-1.27-1.08-1.41-.91-.23-3.9,1.74-4.99,2.14-.99.36-2.06.07-3.02.34-.6.17-5.35,3.96-4-.14.63-1.92,4-4.54,5.08-6.46l-.71-.23c-1.33,1.31-11.73,8.65-12.48,8.62-.46-.02-.99-1.29-.66-1.86,3.73-2.19,7.46-4.47,10.93-7.06s7.75-7.32,11.12-9.51.75,2.44.93,2.6ZM162.63,17.61c.51.48,11.33-2.95,11.98-5.04-1.14-1.47-3.97-.3-5.38.37-1.57.74-3.05,2.73-3.73,3.03-.47.21-2.4-2.19-2.88,1.64Z"/>
  <path d="M11.02,17.61c.41.56,10.64-5.67,12.7-5.77,1.73-.09.05,2.91.25,3.86.26.33,5.75-5.38,7.18-2.64l-.94,3.12c.21.23,2.61-1.31,3.35.25.47.98-3.48,1.72-3.98,1.6-1.83-.43-.72-3.27-2-2.8-1.22.45-4.49,4.86-5.45,1.57-.33-1.13.93-2.92-.31-2.52-2.01.65-4.8,2.82-6.85,3.7-3.44,1.49-6.67,3.31-5.87-2.27-.3-.35-7,2.7-8.35,2.37-.66-.16-1.13-1.06-.28-1.65.95-.66,5.6-1.5,7.3-2.29.58-.27,6.34-4.61,5.64-1.56-.14.61-3.28,3.18-2.39,5.05Z"/>
  <path d="M20.61,6.57c.4.4-1.03,2.76-1.32,3.22-.83,1.27-2.12.72-1.64-.66.23-.66,1.93-3.6,2.97-2.56Z"/>
  <path d="M165.03,7.05c-.04.82.16,1.78-.08,2.55-.91,2.92-3.73-2.97.08-2.55Z"/>
</svg>