<?xml version="1.0" encoding="UTF-8"?>
<svg id="Calque_1" data-name="Calque 1" xmlns="http://www.w3.org/2000/svg" viewBox="0 0 389.15 58.08">
  <path d="M338.75,47.06c1.41,1.24,8.67-2.33,9.88-3.8.51-.62.66-1.93.93-1.98,1.33-.23,1.98.85,2.9.99,1.45.22,2.67-1.04,3.56.25.34,1.3-1.88,2.37-2.32,3.91-.23.82-.35,1.18.65,1.13,1.2-.05,9.3-3.5,11.11-4.25.96-.4,4.05-2.4,4.29-2.44,1.88-.29.63,2.46.91,3.32,1.65-.85,3.55-.19,5.16-.6,2.11-.54,4.55-4.11,8.03-2.76.45,3.38-3.92,4-6.47,4.32-.5,2.39,4.04,2.02,5.74,1.91,1.07-.07,6.46-1.86,6,.24-.27,1.26-11.21,2.87-13.64-.28-.7-.9.59-1.52-1.94-1.41-3.29.14-3.44,1.07-5.64,2.06-2.02.9-4.27.17-2.41-1.58.12-.11,3.75-1.78,1.82-1.89-2.96,1.38-6.33,2.92-9.37,4.06-2.25.85-7.1,2.58-6.14-1.8.18-.83,1.83-2.79-.33-2.77-1.13.01-7.16,5.62-11.5,5.32-4.96-.34-1.93-4.6-2.17-4.82-1.5-.08-3.03.13-4.53-.03-.85-.09-1.53-.85-2.34-.82-2.58.1-6.67,3.76-9.67,3.26-2.54-.43-.34-2.63-.02-3.86-2.4.92-5.8.51-8.04,1.08-.74.19-1.73,1.2-2.76,1.56-2.58.89-6.58,2.38-9.25,1.58-1.28-.38-1.72-2.31-2.05-2.33-.92-.05-6.08,3.43-6.85.17-.95-3.96,7.15-8.56,5.66-3.78-.38,1.23-1.74.03-2.63.69-.39.29-1.51,2.16-1.18,2.45,2.71-.01,6.44-1.56,5.76-4.8,1.84.46,2.71,1.08,4.79.48.6.51-3.05,3.57-3.35,4.57-.27.9.16.63.7.71,1.76.25,5.8-.48,7.45-1.2,1.21-.53,1.96-1.83,2.73-2.06,1.4-.42,3.5.07,5.12-.16,2.73-.38,6.73-2.25,8.69-2.36.91-.05.7-.03.73.75.08,1.98-3.55,2.55-4.32,4.54,2.74-.19,7.27-3.88,9.71-3.26.78.2,1.35,1.19,2.56,1.34,5.22.65,6.16-2.42,9.6-3.79,5.76-2.29,5.27,3.23-.37,4.9-2.35.7-4.79-.37-5.19,3.2ZM345.95,40.35c-.33-.28-2.84,1.22-2.4,1.43,1.08.18,2.01-.43,2.4-1.43Z"/>
  <path d="M183.77,20.67c3.85-1.27,7.35-3.5,10.32-6.23,1.54-.35-.18,2.56,3.72,1.8,2.85-.56,3.34-3.01,5.27-3.84,3.78-1.62,3.9,1.51,1,3.4-1.54,1-3.62.63-3.52,2.96,1.82.13,3.61-.53,5.27-1.2,2.96-1.2,5.61-4.54,3.37,1.68,2.3.07,6.38.28,6.23-2.88-7.35,1.74.55-3.91,2.19-1.46.76,1.14-.61,2.52,3.34,2.42,2.33-.06,4.54-2.07,6.95-1.92l-1.44,3.35c1.18.9,5.32-3.84,6.47-3.85,2.25-.02.36,2.41.31,3.23-.19,2.92,10.03-1.74,10.48.39.23,1.08-1.05,1.04-1.67,1.2-2.93.74-10.55,2.95-10.81-1.45-1.93,1.86-7.02,4.55-6.71,0-2.54,1.48-4.29.38-6.47.45-2.04.06-3.97,2.55-7.19,2.45-2.22-.07-3.39-1.87-4.31-1.92-1.67-.09-4.18,2.2-6.66,1.34-1.32-.46-1.14-2.66-1.28-2.8-.11-.11-1.89.55-2.63.52-1.04-.04-1.88-.83-2.41-.83-1.24,0-10.19,6.84-12.22,5.85-3.04-1.48,3.72-6.51,4.31-8.41-2.33.25-4.22,2.06-6.53,2.35-1.59.2-1.85.3-1.62-1.38,3.47-1.45,8.88-2.65,11.94-4.62S199.53.08,202.71,0c2.87-.07,3.5,2.82,1.9,4.81-3.1,3.85-9.91,5.45-13.62,7.98-1.4.95-5.1,4.79-6.27,6.21-.45.54-1.16.78-.96,1.68ZM194.81,8.67c1.67.2,9.08-5.17,9.11-5.99.01-.52-.99-.73-1.58-.64-1.49.23-6,5.38-7.53,6.63Z"/>
  <path d="M65.79,6.23c.15.24,1.58.2,1.38,1.24s-2.84.6-3.82.98c-1.78.7-10.88,9.75-9.61,11.26,1.68-1.64,3.56.12,5.28-.72,1.34-.65,2.08-5.12,5.53-5.08,1.14.01,2.18.85,1.93,2-.32,1.47-2.39,2.26-3.14,3.31,3.05-.1,6.53-3.7,9.35-3.85,1.82-.1-.21,2.79.25,3.38,2.77-.7,8.31-6.45,7.68-.48,2.51-.91,4.24-.56,2.88,2.4,1.57,1.21,10.34-4.66,11.35-4.72.67-.04,1.09.85,1.76.81.82-.06,2.35-1.67,3.71-.67.89.65-.08,3.28,1.2,3.59.61.15,3.71-1.17,4.8-1.35.65-.11,1.88-.45,1.63.67-2.57,2.04-9.88,4.42-8.63-1.19-1.02-1.1-8.18,5.95-9.13,6.94-2.11,2.21-4.82,6.65-6.95,8.4-.74.6-1.26.56-2.15.49-.14-.96.25-1.61.74-2.37,1.77-2.75,5.93-6.31,8.14-9.14.38-.48.93-.61.71-1.44-2.08.72-6.18,2.45-8.32,1.94-.79-.19-.58-2.58-1.03-2.42-2.9,2.12-4.35,2.95-2.88-1.44.2-.6.48-.67-.49-.49-2.71.51-4.68,3.49-7.43,3.36l.24-3.83c-2.26,1.04-5.41,3.35-7.8,3.73-2.03.32-4.85-.96-7.03-.73-1.05.11-2.41,2.02-4.13,1.31-.58-2.6,1.01-4.43,1.67-6.72-3.68,1.29-7.02,3.88-10.67,5.16-2.6.91-3.6.05-1.09-1.57,6.45-4.18,12.71-5.85,19.43-11.28.85-.69,3.57-3.85,4.34-3.81,1.24.06.23,2.23.29,2.34Z"/>
  <path d="M124.27,39.39c1.33,1.38-4.9,6.46-5.28,8.15,3.14,1.06,13.35-7.2,14.15-7.21.47,0,1.17.46,1.19.73.07,1.1-5.74,5.33-4.78,6.48l14.15-5.8c3.39,0,.05,3.02.73,3.88,1.59-.42,7.8-5.43,8.16-2.16.12,1.09-1.62,3.8-.26,3.6,4.34-.63,6.05-5.23,8.16-5.24s2.81,1.7,1.48,3.36c-.81,1-2.19.93-2.67,1.88,1.34.44,2.65.61,4.07.49,1.03-.09,6.53-2.51,6-.25-3.17,1.89-6.59,2.67-10.19,1.56-.97-.3-1.76-1.25-2.55-1.32-2.79-.27-6.97,5.01-6.69-2.87-1.74.62-6.24,3.99-7.68,3.86-2.75-.25.57-2.96,0-4.34-3.64,1.2-9.11,4.6-12.71,5.09-3.83.51-1.9-2.69-2.65-2.7-4.5,2.68-13.98,5.44-7.43-2.87-.58-.46-7.35,4.14-6.72,0,2.21.92,10.89-4.97,11.52-4.32Z"/>
  <path d="M237.99,37.46c1.4.23,2.63.53,4.08.52,1.03-.01,6-1.14,5.99.21-.63.86-1.08,1.08-2.13,1.22-2.02.27-9.61-.59-10.32-.28-1.13.5-5.83,7.57-5.77,8.66.95,1.35,2.38-.84,3.82-.24-.35,2.53-3.31,2.55-5.28,2.4-.73-4.2,2.25-7.3,4.32-10.55-6.28,1.87-13.51,6.95-19.77,8.29-1.77.38-3.3.13-4.83.45-4.21.89-9.14,4.67-9.95-2.51-.42-.46-3.01,2.1-3.83.23-.39-.89,2.6-1.5,3.01-2.26l2.26-.38c.16,3.5-.05,5.38,3.86,4.58,4.32-.88,2.88-2.14,4.77-4.82,3.29-4.66,8.18-1.33,3.84,2.88-.08.36.46.31.71.23,5.36-1.71,13.41-5.67,18.65-8.22,1.44-.7,7.75-4.74,8.23-4.72,2.23.1-1.13,3.77-1.68,4.3ZM212.08,42.75c-1.6-.19-3.07,1.3-2.87,2.87l2.87-2.87Z"/>
  <path d="M270.62,34.58c1.03,0,2.08.07,3.11,0,1.13-.08,6.92-1.85,6.48.24-.33,1.56-9.89,1.24-11.03,1.93-.47.28-6.11,8.93-5.76,9.35,1.05-.95,4.01-1.85,4.78-2.65,1.27-1.31.1-3.22,3.13-3.12,2.2.07-.71,3.66-.24,4.33,2.1,1,3.52-.02,5.43-.57.87-.25.99-.75,1.76.34-.89,2.25-4.49,2.46-6.45,2.13-1.23-.21-2.03-1.33-2.81-1.31-1.99.04-4.63,3.73-7.04,2.55-2.63-1.29,1.66-5.76,2.68-7.41.25-.41,1.21-1.04.43-1.48-2.17,2.01-14.16,9.63-16.26,9.14-.46-.11-.14-1.14-.53-.99-1.96,2.3-7.61,4.32-6.48-.48-.84-.64-7.39,3.49-5.93-.48,3.07.13,9.35-5.07,7.38,1.43,1.45.28,2.51-1.11,3.71-1.33,7.19-1.3,14.26-5.89,19.81-10.9.97-.88,3.96-4.64,4.3-4.82.76-.41,1.91-.09,1.92.49,0,.39-2.56,3.47-2.39,3.6Z"/>
  <path d="M163.14,5.8c1.34,1.4-3.81,4.98-4.32,6.23.96.17,6.02-.22,6.24,0,.05.05.06,1.25-.03,1.4-.6.97-6.18.1-7.64.76-1.65.75-3.62,5.78-4.09,5.99-2.59,1.17-.43-4.01.72-4.79-.81-.67-13.53,8.18-16.33,5.5l1.45-3.1c-2.7,1.34-8.8,5.05-11.56,2.69-.91-.78-.85-2.11-.93-2.19-.19-.17-4.78,1.28-4.77-.25,0-.77,4.57-1.57,5.41-2.14.75-.5.96-1.92,2.38-2.54,1.18-.51,2.75-.95,2.98.56.33,2.12-3.19,2.32-3.83,3.39-1.64,2.73,2.12,2.06,4,1.6s7.17-4.16,7.99-3.99c1.49.31-.16,3.43.25,3.84,5.07-.86,10.55-4.05,14.62-7.21.97-.76,6.64-6.59,7.45-5.74Z"/>
  <path d="M20.16,4.36c.38.38-.42,1.87-.74,2.37-1.13,1.76-5.05,5.92-6.69,7.71-2.12,2.32-5.49,3.73-6,7.19,1.01-.03,2.06.11,3.07-.04,3.94-.6,3.76-5.27,8.44-4.27.01.81.13,1.63-.24,2.4-.5,1.05-2.68,1.34-3.12,2.39,4.24,1.59,7.97-.73,11.74-2.39,2.23,1.64-3,3.46-4.29,3.86-3.16.98-4.75,1.04-7.94.23-.66-.17-1.19-.99-1.74-1.08-.98-.17-2.92.99-4.67.81-1.38-.14-2.4-1.23-3.03-1.33-1.22-.18-3.58,3.63-4.71,1.83-.72-.87.34-1.15.85-1.55,3.02-2.38,6.79-5.53,9.46-8.29s5.11-6.75,7.67-9.12c.46-.42,1.48-1.15,1.92-.71Z"/>
  <path d="M192.89,42.75c-.46-.36-6.86,2.28-7.68,1.43-.08-.08.02-1.03.03-1.4,2.67.04,9.12-3.5,11.18-2.86.45.14.91.62.79,1.14l-15.61,16.54c-.79,1.15-1.51-.07-2.12-.7.38-1.78,14.26-13.49,13.42-14.15Z"/>
  <path d="M253.34,40.82c-1.31-1.33,2.89-2.95,3.83-1.2-.34,1.15-3.44,1.6-3.83,1.2Z"/>
</svg>