<?xml version="1.0" encoding="UTF-8"?>
<svg id="Calque_1" data-name="Calque 1" xmlns="http://www.w3.org/2000/svg" viewBox="0 0 186.98 19.99">
  <path d="M11.99,14.06c1.91-.97,5.87-8.08,7.9-7.68,1.89.38-.28,4.66.02,5.76,1.69-.57,7.5-8.19,9.14-5.78,1.07,1.58-2.24,5.67-1.7,7.7,4.11-2.39,8.31-4.83,11.76-8.16,3.07-.69-1.52,6.48-1.21,6.71,3.68.24,5.49-4.62,9.11-4.31.72,1.31-2.38,5.2-1.91,5.76,2.27-.54,12.45-9.61,13.91-8.16.73,1.3-2.38,5.19-1.91,5.76,2.71-1.74,5.11-4.81,8.63-4.8.53,2.48-1.37,4.32-1.43,6.72.36.46,8.76-6.23,9.84-6.25,2.78-.03-.33,2.23-.44,2.43-.18.33-1.25,3.34-1.21,3.53.7,3.02,7.78-1.53,8.6-3.31-1.59-1.19-4.72,3.68-5.75,2.64-1.63-1.63,7.36-7.57,8.09-3.53.63,3.48-13.66,12.09-12.41,2.57-.58-.7-5.71,4.62-7.67,3.62-2.12-1.08.11-4.26-.01-6.02-.32-.41-7.43,6.25-8.39,6.26-3.03.03,1.07-5.03.95-6.26-4.41,1.72-7.7,7.1-12.71,6.72l.48-3.84c-1.6.32-2.46,1.93-4.19,2.29-3.41.7-3.14-.87-3.01-3.73-.32-.43-7.65,5.29-9.36,5.27-1.13-.02-1.65-1.14-1.71-2.14-.12-1.97,1.38-3.27,1.24-5.04-2.15.85-6.47,6.79-8.17,7.19-2.39.55-.33-4.8-.46-5.75-2.31,1.97-4.33,5.48-6.47,7.44-4.81,4.41-.01-9.08.47-10.32-.35-.35-8.03,3.04-9.47,3.25-1.03.15-1.81.4-2.51-.61.46-.7.97-.88,1.69-1.18,3.7-1.57,8.36-2.21,12-4.34.66-.03,1.13.43,1.1,1.1-.09,1.93-3.02,6.03-2.8,8.5Z"/>
  <path d="M173.68.63c.27.27-.15,1.65-.71,1.93l-8.88,11.02c.19.19,2.59-2.55,4.07-2.43,2.71.21-1.16,4.91-.71,6.75.94.88,7.81-4.81,10.07-3.83.69.69-3.65,7.06,3.32,2.59,1.24-.8,3.64-2.63,3.17-4.03-.39.6-4.93,3.8-4.57,1.67.28-1.64,7.54-6.11,7.55-2.79,0,3.65-9.02,10.72-11.43,7.65-.66-.84.03-2.5-1.13-2.19-3.41.9-10.65,7.62-7.94-2.41-.57-.49-5.96,4.84-5.28,0-2.63,1.05-8.36,4.98-11.05,4.13-1.79-.57-2.04-2.11-1.15-3.6,1.75-2.92,9.89-7.51,13.29-7.14.98.11,2.31,1.32,2.75,1.12,1.2-.53,7.13-9.92,8.63-8.42ZM162.64,9.74c-3.1-.68-3.69,1.4-5.4,2.51-2.27,1.47-5.98.71-7.07,4.68,2.72-.15,5.68-1.43,8-2.79.58-.34,5.4-3.6,4.47-4.4Z"/>
  <path d="M137.22,7.82c.42.34,4.39-1.78,5.53-1.91.96-.11.95.56.69,1.18s-4.43,2.29-5.24,2.46c-1.09.22-2.63-.18-2.93-.04-.54.24-4.3,5.41-3.8,6,1.2-.03,4.93-2.99,5.5-2.88,1.74.34-.97,4.61.97,4.33s7.37-4.89,7.92-4.32c-.79,5.12-.11,2.47.97,3.09,1.84,1.05-1.1,2.79-2.1,2.6s-1.13-1.86-1.53-1.89c-.99-.07-3.43,2.55-5.7,2.41-2.45-.15-1.98-2.15-2.21-2.37-.46-.43-8.83,4.23-4.3-4.81-3.21,1.23-5.92,3.9-9.59,3.83-1.36-1.4,3.74-2.78,4.65-3.26,4.97-2.65,9.41-6.15,13.35-10.17,3.57.48-2.48,5.5-2.17,5.75Z"/>
  <path d="M97.87.15c.46.46-.38,1.5-.7,1.94-1.33,1.82-5.38,4.44-7.23,6.2-1.98,1.88-3.77,3.91-5.5,6.01,1.45.5,5.71-3.16,6.71-2.16.12.12.05,1.08-.22,1.46-.21.29-5.91,2.96-6.48,3.12-2.34.67-2.81-.35-1.96-2.45,1.13-2.81,10.66-11.67,13.45-13.42.42-.26,1.42-1.21,1.93-.71Z"/>
  <path d="M116.11,15.98c-1.45-1.52,3.96-4.63,3.83-6.23-.42-.41-9.29,3.26-11.34,3.34-.76.03-1.82-.26-1.61-1.17.18-.81,13.83-3.61,15.58-5.53.69.52.77.72.65,1.57-.21,1.44-5.78,9.41-7.11,8.02Z"/>
  <path d="M178,4.95c.14,2.18.3,3.75-2.39,3.35.09-1.49.37-3.77,2.39-3.35Z"/>
</svg>