<?xml version="1.0" encoding="UTF-8"?>
<svg id="Calque_1" data-name="Calque 1" xmlns="http://www.w3.org/2000/svg" viewBox="0 0 190.82 19.39">
  <path d="M12.02,14.53c1.78-.64,6.86-8.93,8.63-7.2l-.72,5.76c1.56-1.31,6.82-7.43,8.9-6.02,1.5,1.01-2.02,5.91-1.46,7.46.78.88,9.81-6.5,10.86-7.13,4.88-2.97-.76,5.82-.3,6.17,2.22.58,7-5.08,8.39-4.8,1.84.38-.73,4.9-1.19,5.76.89.87,11.19-8.15,12.73-8.16,2.82-.02-.64,4.88-.25,5.29,2.35-.84,3.94-3.13,6.38-3.94.64-.21.96-.71,1.55.09,1.1,1.73-1.31,4.41-1.21,6.25.46.51,7.96-5.45,9.46-5.67,3.6-.53-.11,1.79-.21,1.96-.09.14-.86,2.95-.88,3.2-.37,3.65,7.67-.81,8.43-2.62.25-.59-.09-.89-.71-.71-1.32.39-3.46,3.51-4.32,3.35s-.68-1.1-.36-1.79c.96-2.05,7.07-5.02,7.73-2.24.9,3.8-13.96,12.69-12.41,2.59-13.03,9.5-7.03-1.09-7.68-1.92-1.93.33-8.14,7.2-9.59,5.76-.5-2.16,1.94-3.72,1.67-5.76-2.62.88-8.69,6.94-11.03,6.75-2.45-.2-.48-4.04-.73-4.34-3.42,2.57-8.22,5.49-7.2-1.44-1.74.91-9.24,7.09-10.82,4.83-1.05-1.51.94-4.61.98-6.27-1.93.43-7.93,8.13-9.35,6.72l.72-5.76c-1.08,1.27-6.98,8.87-8.15,8.63-2.56-.52,2.85-10.59,2.15-11.51-2.48.65-8.19,3.7-10.35,3.84-.79.05-1.85-.32-1.64-1.19s11.66-3.83,13.23-5.05c.54-.19,1.55.28,1.64.73.17.89-3.28,6.62-2.87,8.38Z"/>
  <path d="M140.61,3.01c1.08,1.01-2.9,4.42-3.36,5.27,2.04.2,3.53-1.34,5.52-1.44,1.03-.05,1.01.87.65,1.38-.18.25-4.98,1.89-5.81,2.15s-1.67-.18-2.26.08c-.97.43-4.13,5.31-3.86,5.51,2.36-.01,3.81-2.75,6.23-2.39l-.47,3.83c2.38,1.14,7.44-5,8.63-3.83.4.39-.77,2.98-.47,3.36,3.63-1.86,1.75,2.89-1.15,1.87-.66-.24-.67-1.2-.84-1.31-.92-.57-2.65,1.31-3.75,1.62-4.63,1.3-4.25-2.17-4.58-2.18-1.25-.05-4.12,2.84-5.28.49s1.9-5.07,1.68-5.27c-1.47.48-9.22,5.21-10.07,4.31-.28-.29.03-1.26.48-1.68.59-.55,4.81-2.1,6.2-2.92,2.44-1.44,4.77-3.25,6.98-5.01.96-.76,4.4-4.88,5.53-3.82Z"/>
  <path d="M177.55.13c.51.51-.44,1.51-.71,1.93-2.12,3.39-6.4,7.01-8.88,10.31l.23.71c.58-1.07,4.65-3.73,5.04-1.66.13.7-2.31,4.6-1.92,5.98.94.88,7.81-4.81,10.07-3.83.69.69-3.65,7.06,3.32,2.59,1.24-.8,3.64-2.63,3.17-4.03-2.92,3.31-7.69,2.94-2.12-.68,6.75-4.39,6.02.77,2.14,4.54-2.3,2.23-8.68,6-9.14.45-4.23,2.1-11.32,6.25-8.39-2.39-1.98.42-2.94,2.51-5.28,1.91-.08-.83-.01-1.61.23-2.41.37-1.27,9.01-11.78,10.31-12.72.44-.32,1.48-1.16,1.94-.7Z"/>
  <path d="M164.48,9.37c2.06,1.98-3.02,5.56-4.54,6.51-2.01,1.25-9.51,5.19-11.22,2.64-.84-1.26.36-3.01,1.22-4s5.24-3.87,6.54-4.5c1.71-.83,6.52-2.06,7.99-.65ZM163.16,10.69c-1.2.07-3.54-.27-4.51.44-.43.32-.12,1.09-.6,1.51-1.56,1.38-6.94.95-7.85,4.76,1.74,1.26,11.98-4.17,12.95-6.71Z"/>
  <path d="M84.95,15.01l5.51-2.4c.56.52.95.62.51,1.46-.68,1.27-12.96,6.91-7.45-.73,1.17-1.62,12.73-12.74,13.68-12.71l.49,1.44c-3.64,3.86-8.39,7.18-11.77,11.27-.45.54-1.16.78-.96,1.68Z"/>
  <path d="M123.33,7.33c1.02,1.01-5.35,10.95-7.19,9.11-1.66-1.66,4.41-4.26,3.83-6.24-4.21,1.37-8.41,3.53-12.95,3.36.06-.39-.09-1.33,0-1.43.2-.21,4.67-.88,5.76-1.2,1.53-.46,10.13-4.01,10.55-3.6Z"/>
  <path d="M181.87,4.45c.14,2.18.3,3.75-2.39,3.35.09-1.49.37-3.77,2.39-3.35Z"/>
</svg>