<?xml version="1.0" encoding="UTF-8"?>
<svg id="Calque_1" data-name="Calque 1" xmlns="http://www.w3.org/2000/svg" viewBox="0 0 117.69 22.61">
  <path d="M22.13,11.51c.69.72,10.46-5.32,11.77-5.27.94.03,1.27,1.14,1.88,1.24,1.15.19,3.19-.89,4.33-1.25,2.78,2.59-3.07,2.66-3.11,4.56-.01.53,2.54.8,3.12.76,1.15-.08,3.73-1.37,4.73-2.03s5.8-5.99,6.11-2.55c.25,2.69-5.57,3.17-5.79,5.99,2.51-.43,12.62-5.38,14.41-4.11,1.7,1.2-1.62,6.71-4.09,5.56-1.31-2.25,2.8-1.24,2.14-3.84-2.88.23-11.75,5.21-13.95,3.62-.52-.37-.21-1.59-.72-1.74-1.85-.54-4.04,2.28-7.11,0-1.67-1.25.37-3.51-2.08-3.69s-12.37,6.62-14.08,4.41c-.82-1.05.62-1.98.52-3.07-.29-.28-4.44,1.08-5.52,1s-1.84-1.04-2.32-.96c-1.87.31-8.51,9.69-10.18,11.43-.92.95-2.72,1.83-2.02-.1,1.14-3.16,5.76-7.19,8.06-9.7-1.08-.52-2.12.84-3.23,1.09-1.18.26-2.95.31-1.98-1.26.17-.27,5.09-1.98,6.01-2.38,2.14-.94,8.74-5.19,4.48.16,3.93,0,8.24-1.6,11.76-3.59,2.46,2.29-3.12,3.22-3.12,5.75Z"/>
  <path d="M71.05,6.73c.07.05.34,1.18.27,1.47-.58,2.38-4.67,2.8-5.05,5.23,4.43.14,8.02-3.25,12.23-3.85.31,2.72,1.22.83,3,.58,2.76-.4,1.98,1.7,2.04,3.75.6.59,8.47-2.35,9.85-2.87,1.67-.63,4.01-2.98,6-1.71s-3.69,2.69-4.7,3.44c-1.27.96-2.31,2.64.07,2.54.78-.03,6.11-2.27,6.04-.69-.08,1.92-11.64,4.47-9.11-1.2-3.5,1.3-10.87,5.49-10.08-1.44-2.1,2-4.45.05-5.43.09-1.85.08-5.85,3.22-8.73,3.19-1.89-.02-2.62-1.57-3.45-1.76-.93-.22-2.77.81-3.98.4.21-2.25,3.4-1.76,4.92-2.86.98-.7,4.04-5.79,6.09-4.32Z"/>
  <path d="M107.53,13.92c1.86,3.9,7.45.53,9.28,1.01.54.14,1.08,1,.79,1.38-.66.87-6.62,1.14-7.93.98-1.88-.23-2.96-1.76-3.9-1.84-1.02-.09-2.7,1.66-4.48.38l.47-1.7c4.18,1.22,3.55-2.28,5.46-4.37,1.09-1.19,4.41-3.34,5.06-.79.31,1.2-3.4,4.64-4.75,4.95Z"/>
  <path d="M57.15,0c.73,1.56-2.39,3.03-2.87,1.67-.59-1.68,1.81-1.66,2.87-1.67Z"/>
</svg>