<?xml version="1.0" encoding="UTF-8"?>
<svg id="Calque_1" data-name="Calque 1" xmlns="http://www.w3.org/2000/svg" viewBox="0 0 110.71 36.47">
  <path d="M56.65,5.34c.95.96-2.6,3.24-1.91,3.83l8.15-.47c.02.68.18,1.24-.47,1.69-.27.19-5.52.68-6.49.75-1.05.08-2.35-.61-3.1-.3-.65.27-4.09,4.57-4.32,5.3-.46,1.46,1.83-.02,2.39.23,1.55,1.62-5.05,4.8-4.24-.12.22-1.36,1.96-2.39,1.6-3.72-2.22,1.54-4.66,2.81-7.12,3.92-5.76,2.59-12.68,3.86-17.13,8.3-3.26,3.25-7.14,8.6-11.33,10.74-6.81,3.48-5.01-3.19-1.38-6.66,5.47-5.23,13.65-6.5,18.48-12.46-2.52.94-3.94-2.86-5.01-2.89-1.51-.04-7.97,5.04-8.84,1.58-.4-1.59,3-5.17,2.81-5.41-3.73-1.59-6.87,1.59-10.23,2.96-1.77.72-4.73,1.84-6.55,2.11-2.28.34-2.84-.85-.32-1.79,2.13-.79,4.43-1.22,6.54-2.1,1.44-.6,8.12-4.42,8.7-4.34.84.12.86,1.14,1.24,1.23,1.13.24,3.67-.97,3.98.25.38,1.49-3.79,4.14-3.84,5.99.47.43,6.8-2.98,7.85-2.78,2.03.38-.3,4.07,4.75,3.15,2.24-.41,6.22-4.43,7.3-4.21.35.07.75.76.75,1.2,0,2-7.67,4.77-8.65,7.2-.07.37.44.29.71.23,2.94-.73,13.41-5.89,16.41-7.58,1.42-.8,8.34-6.78,9.27-5.84ZM21.63,24.53c-.21-.19-3.43,1.68-3.99,2.01-2.92,1.73-7.53,4.31-7.52,8.07.46.62,11.51-8.19,11.51-10.07Z"/>
  <path d="M67.7,12.06c-.11,1,1.66.22,1.92.47.17.16-.13,3.14,0,3.84,2.41.51,15.1-5.06,15.83-4.32v1.92c4.14-1.57,8.8-4.22,4.8,2.39,3.13-.68,5.78-3.14,9.11-2.87l-1.43,4.32c3.45-.3,3.75-2.3,5.74-4.09,5.2-4.66,10.98-.97,3.37,2.89l3.35-.24c1.28,1.32-3.04,2.69-4.12,2.83-1.99.27-3.27-.37-4.81-.39-2.59-.03-6.05,2.19-5.47-2.45-.62-.68-8.59,4.57-8.64,1.22-.02-1.1,1.29-1.74,1.2-2.67-2.57-.36-5.53,3.45-7.2,3.84-2.98.69.56-3.14.73-3.83-1.01-.8-14.49,7.37-14.64-.01-3.32,1.27-5.83,3.71-8.62,5.76-2.15-1.84,1.45-3.17,2.15-4.79-1.83-.12-5.23,2.47-6.72,1.68-.68-.36-.44-.55-.02-.98,1.28-1.31,8.35-3.48,10.73-5.1,3.36-2.29,10.73-12.12,14.94-11.46,3.57.55-.72,4.77-1.89,5.79-2.83,2.47-6.97,4.62-10.32,6.23ZM79.21,1.98c-2.98.94-5.45,3.68-7.68,5.75,3-.98,5.82-3.26,7.68-5.75ZM108,13.5c-1.13.13-2.8.87-3.36,1.91,1.13-.13,2.8-.87,3.36-1.91Z"/>
</svg>